<?xml version="1.0" encoding="UTF-8"?>
<svg xmlns="http://www.w3.org/2000/svg" xmlns:xlink="http://www.w3.org/1999/xlink" width="2500" height="2500" viewBox="0 0 2500 2500">
<defs>
<radialGradient id="radial-pattern-0" gradientUnits="userSpaceOnUse" cx="0" cy="0" fx="0" fy="0" r="1947.626634" gradientTransform="matrix(0.707107, 0.707107, -0.707107, 0.707107, 1255.08, 1049.62)">
<stop offset="0" stop-color="rgb(100%, 100%, 100%)" stop-opacity="1"/>
<stop offset="0.0625" stop-color="rgb(99.868774%, 99.957275%, 99.990845%)" stop-opacity="1"/>
<stop offset="0.0742188" stop-color="rgb(99.594116%, 99.868774%, 99.97406%)" stop-opacity="1"/>
<stop offset="0.101562" stop-color="rgb(99.331665%, 99.757385%, 99.920654%)" stop-opacity="1"/>
<stop offset="0.113281" stop-color="rgb(99.031067%, 99.459839%, 99.617004%)" stop-opacity="1"/>
<stop offset="0.140625" stop-color="rgb(98.81897%, 99.151611%, 99.266052%)" stop-opacity="1"/>
<stop offset="0.164062" stop-color="rgb(98.617554%, 98.88916%, 98.974609%)" stop-opacity="1"/>
<stop offset="0.1875" stop-color="rgb(98.410034%, 98.634338%, 98.748779%)" stop-opacity="1"/>
<stop offset="0.210938" stop-color="rgb(98.208618%, 98.373413%, 98.503113%)" stop-opacity="1"/>
<stop offset="0.234375" stop-color="rgb(97.854614%, 97.973633%, 98.028564%)" stop-opacity="1"/>
<stop offset="0.28125" stop-color="rgb(97.599792%, 97.694397%, 97.689819%)" stop-opacity="1"/>
<stop offset="0.300781" stop-color="rgb(97.453308%, 97.590637%, 97.602844%)" stop-opacity="1"/>
<stop offset="0.308594" stop-color="rgb(97.257996%, 97.529602%, 97.592163%)" stop-opacity="1"/>
<stop offset="0.328125" stop-color="rgb(96.961975%, 97.267151%, 97.499084%)" stop-opacity="1"/>
<stop offset="0.347656" stop-color="rgb(96.75293%, 97.009277%, 97.32666%)" stop-opacity="1"/>
<stop offset="0.355469" stop-color="rgb(96.611023%, 96.936035%, 97.117615%)" stop-opacity="1"/>
<stop offset="0.375" stop-color="rgb(96.41571%, 96.870422%, 96.990967%)" stop-opacity="1"/>
<stop offset="0.394531" stop-color="rgb(96.330261%, 96.679688%, 96.757507%)" stop-opacity="1"/>
<stop offset="0.410156" stop-color="rgb(96.159363%, 96.427917%, 96.470642%)" stop-opacity="1"/>
<stop offset="0.425781" stop-color="rgb(95.960999%, 96.334839%, 96.41571%)" stop-opacity="1"/>
<stop offset="0.441406" stop-color="rgb(95.916748%, 96.165466%, 96.19751%)" stop-opacity="1"/>
<stop offset="0.457031" stop-color="rgb(95.753479%, 95.918274%, 95.913696%)" stop-opacity="1"/>
<stop offset="0.472656" stop-color="rgb(95.545959%, 95.671082%, 95.782471%)" stop-opacity="1"/>
<stop offset="0.488281" stop-color="rgb(95.346069%, 95.41626%, 95.547485%)" stop-opacity="1"/>
<stop offset="0.503906" stop-color="rgb(95.051575%, 95.179749%, 95.196533%)" stop-opacity="1"/>
<stop offset="0.53125" stop-color="rgb(94.755554%, 94.892883%, 94.862366%)" stop-opacity="1"/>
<stop offset="0.542969" stop-color="rgb(94.439697%, 94.519043%, 94.624329%)" stop-opacity="1"/>
<stop offset="0.570312" stop-color="rgb(94.145203%, 94.238281%, 94.404602%)" stop-opacity="1"/>
<stop offset="0.582031" stop-color="rgb(93.920898%, 94.120789%, 94.187927%)" stop-opacity="1"/>
<stop offset="0.605469" stop-color="rgb(93.675232%, 93.881226%, 94.041443%)" stop-opacity="1"/>
<stop offset="0.617188" stop-color="rgb(93.377686%, 93.62793%, 93.843079%)" stop-opacity="1"/>
<stop offset="0.628906" stop-color="rgb(93.159485%, 93.530273%, 93.635559%)" stop-opacity="1"/>
<stop offset="0.648438" stop-color="rgb(93.016052%, 93.417358%, 93.466187%)" stop-opacity="1"/>
<stop offset="0.65625" stop-color="rgb(92.811584%, 93.164062%, 93.191528%)" stop-opacity="1"/>
<stop offset="0.675781" stop-color="rgb(92.666626%, 92.83905%, 92.793274%)" stop-opacity="1"/>
<stop offset="0.695312" stop-color="rgb(92.503357%, 92.597961%, 92.521667%)" stop-opacity="1"/>
<stop offset="0.710938" stop-color="rgb(92.30957%, 92.501831%, 92.460632%)" stop-opacity="1"/>
<stop offset="0.726562" stop-color="rgb(92.112732%, 92.297363%, 92.251587%)" stop-opacity="1"/>
<stop offset="0.742188" stop-color="rgb(91.769409%, 92.00592%, 91.973877%)" stop-opacity="1"/>
<stop offset="0.773438" stop-color="rgb(91.526794%, 91.882324%, 91.81366%)" stop-opacity="1"/>
<stop offset="0.785156" stop-color="rgb(91.281128%, 91.629028%, 91.545105%)" stop-opacity="1"/>
<stop offset="0.808594" stop-color="rgb(90.997314%, 91.355896%, 91.279602%)" stop-opacity="1"/>
<stop offset="0.832031" stop-color="rgb(90.785217%, 91.156006%, 91.03241%)" stop-opacity="1"/>
<stop offset="0.851562" stop-color="rgb(90.541077%, 90.893555%, 90.722656%)" stop-opacity="1"/>
<stop offset="0.867188" stop-color="rgb(90.339661%, 90.649414%, 90.457153%)" stop-opacity="1"/>
<stop offset="0.882812" stop-color="rgb(90.190125%, 90.419006%, 90.240479%)" stop-opacity="1"/>
<stop offset="0.894531" stop-color="rgb(89.985657%, 90.132141%, 89.956665%)" stop-opacity="1"/>
<stop offset="0.917969" stop-color="rgb(89.788818%, 89.888%, 89.753723%)" stop-opacity="1"/>
<stop offset="0.925781" stop-color="rgb(89.595032%, 89.801025%, 89.733887%)" stop-opacity="1"/>
<stop offset="0.941406" stop-color="rgb(89.454651%, 89.750671%, 89.717102%)" stop-opacity="1"/>
<stop offset="0.953125" stop-color="rgb(89.253235%, 89.505005%, 89.453125%)" stop-opacity="1"/>
<stop offset="0.976562" stop-color="rgb(89.012146%, 89.256287%, 89.198303%)" stop-opacity="1"/>
<stop offset="0.988281" stop-color="rgb(88.818359%, 89.199829%, 89.1922%)" stop-opacity="1"/>
<stop offset="1" stop-color="rgb(88.676453%, 89.15863%, 89.187622%)" stop-opacity="1"/>
</radialGradient>
</defs>
<path fill-rule="nonzero" fill="url(#radial-pattern-0)" d="M 1250 -1250 L -1250 1250 L 1250 3750 L 3750 1250 Z M 1250 -1250 "/>
<!-- Front shirt color base. React targets .shirt-base to update this fill. -->
<path class="shirt-base" data-shirt-part="base" fill-rule="nonzero" fill="#ff0000" fill-opacity="1" d="M 779.90625 652.699219 C 779.90625 652.699219 918.402344 720.078125 1010.910156 779.96875 C 1048.339844 822.75 1200.738281 1025.410156 1223.730469 1058.570312 L 1011.441406 1216.308594 L 953.691406 1192.25 L 953.691406 1847.300781 L 318.429688 1847.300781 L 318.429688 1186.371094 L 267.097656 1218.449219 L 39.300781 1061.238281 L 207.207031 830.230469 C 207.207031 830.230469 235.011719 767.140625 389.015625 709.378906 C 449.976562 678.371094 477.78125 660.191406 477.78125 660.191406 C 477.78125 660.191406 644.617188 766.871094 779.90625 652.699219 "/>
<path fill="none" stroke-width="80" stroke-linecap="butt" stroke-linejoin="miter" stroke="rgb(6.266785%, 5.734253%, 5.047607%)" stroke-opacity="1" stroke-miterlimit="10" d="M 7799.0625 18473.007812 C 7799.0625 18473.007812 9184.023438 17799.21875 10109.101562 17200.3125 C 10483.398438 16772.5 12007.382812 14745.898438 12237.304688 14414.296875 L 10114.414062 12836.914062 L 9536.914062 13077.5 L 9536.914062 6526.992188 L 3184.296875 6526.992188 L 3184.296875 13136.289062 L 2670.976562 12815.507812 L 393.007812 14387.617188 L 2072.070312 16697.695312 C 2072.070312 16697.695312 2350.117188 17328.59375 3890.15625 17906.210938 C 4499.765625 18216.289062 4777.8125 18398.085938 4777.8125 18398.085938 C 4777.8125 18398.085938 6446.171875 17331.289062 7799.0625 18473.007812 Z M 7799.0625 18473.007812 " transform="matrix(0.1, 0, 0, -0.1, 0, 2500)"/>
<path fill="none" stroke-width="80" stroke-linecap="butt" stroke-linejoin="miter" stroke="rgb(6.266785%, 5.734253%, 5.047607%)" stroke-opacity="1" stroke-miterlimit="10" d="M 4825.664062 18369.492188 C 4825.664062 18369.492188 4852.65625 17376.796875 5692.1875 17088.007812 C 6141.367188 16927.617188 7417.382812 16758.398438 7846.171875 18449.882812 " transform="matrix(0.1, 0, 0, -0.1, 0, 2500)"/>
<path fill="none" stroke-width="80" stroke-linecap="butt" stroke-linejoin="miter" stroke="rgb(6.266785%, 5.734253%, 5.047607%)" stroke-opacity="1" stroke-miterlimit="10" d="M 8019.6875 18363.515625 C 8019.6875 18363.515625 7857.851562 17467.695312 7221.523438 17018.515625 C 6836.523438 16815.3125 5927.460938 16473.085938 5173.515625 17178.90625 C 4911.484375 17462.304688 4670.546875 17724.804688 4678.710938 18336.796875 " transform="matrix(0.1, 0, 0, -0.1, 0, 2500)"/>
<path fill-rule="nonzero" fill="rgb(6.266785%, 5.734253%, 5.047607%)" fill-opacity="1" d="M 236.53125 794.898438 C 236.53125 794.898438 320.835938 871.410156 315.222656 1070.328125 C 314.417969 1071.128906 320.097656 902.410156 221.007812 810.710938 C 228.652344 802.480469 236.53125 794.898438 236.53125 794.898438 "/>
<path fill-rule="nonzero" fill="rgb(6.266785%, 5.734253%, 5.047607%)" fill-opacity="1" d="M 1021.730469 794.898438 C 1021.730469 794.898438 937.425781 871.410156 943.039062 1070.328125 C 943.839844 1071.128906 938.164062 902.410156 1037.25 810.710938 C 1029.609375 802.480469 1021.730469 794.898438 1021.730469 794.898438 "/>
<path fill="none" stroke-width="80" stroke-linecap="butt" stroke-linejoin="miter" stroke="rgb(6.266785%, 5.734253%, 5.047607%)" stroke-opacity="1" stroke-miterlimit="10" d="M 3184.296875 6748.90625 L 9536.914062 6748.90625 " transform="matrix(0.1, 0, 0, -0.1, 0, 2500)"/>
<!-- Back shirt color base. React targets .shirt-base to update this fill. -->
<path class="shirt-base" data-shirt-part="base" fill-rule="nonzero" fill="#ff0000" fill-opacity="1" d="M 2016.871094 652.699219 C 2016.871094 652.699219 2155.371094 720.078125 2247.878906 779.96875 C 2285.308594 822.75 2437.710938 1025.410156 2460.699219 1058.570312 L 2248.410156 1216.308594 L 2190.660156 1192.25 L 2190.660156 1847.300781 L 1555.398438 1847.300781 L 1555.398438 1186.371094 L 1504.058594 1218.449219 L 1276.269531 1061.238281 L 1444.171875 830.230469 C 1444.171875 830.230469 1471.980469 767.140625 1625.980469 709.378906 C 1686.941406 678.371094 1714.75 660.191406 1714.75 660.191406 C 1714.75 660.191406 1881.578125 766.871094 2016.871094 652.699219 "/>
<path fill="none" stroke-width="80" stroke-linecap="butt" stroke-linejoin="miter" stroke="rgb(6.266785%, 5.734253%, 5.047607%)" stroke-opacity="1" stroke-miterlimit="10" d="M 20168.710938 18473.007812 C 20168.710938 18473.007812 21553.710938 17799.21875 22478.789062 17200.3125 C 22853.085938 16772.5 24377.109375 14745.898438 24606.992188 14414.296875 L 22484.101562 12836.914062 L 21906.601562 13077.5 L 21906.601562 6526.992188 L 15553.984375 6526.992188 L 15553.984375 13136.289062 L 15040.585938 12815.507812 L 12762.695312 14387.617188 L 14441.71875 16697.695312 C 14441.71875 16697.695312 14719.804688 17328.59375 16259.804688 17906.210938 C 16869.414062 18216.289062 17147.5 18398.085938 17147.5 18398.085938 C 17147.5 18398.085938 18815.78125 17331.289062 20168.710938 18473.007812 Z M 20168.710938 18473.007812 " transform="matrix(0.1, 0, 0, -0.1, 0, 2500)"/>
<path fill-rule="nonzero" fill="rgb(6.266785%, 5.734253%, 5.047607%)" fill-opacity="1" d="M 1473.5 794.898438 C 1473.5 794.898438 1557.800781 871.410156 1552.191406 1070.328125 C 1551.390625 1071.128906 1557.058594 902.410156 1457.96875 810.710938 C 1465.621094 802.480469 1473.5 794.898438 1473.5 794.898438 "/>
<path fill-rule="nonzero" fill="rgb(6.266785%, 5.734253%, 5.047607%)" fill-opacity="1" d="M 2258.691406 794.898438 C 2258.691406 794.898438 2174.390625 871.410156 2180.011719 1070.328125 C 2180.808594 1071.128906 2175.128906 902.410156 2274.21875 810.710938 C 2266.578125 802.480469 2258.691406 794.898438 2258.691406 794.898438 "/>
<path fill="none" stroke-width="80" stroke-linecap="butt" stroke-linejoin="miter" stroke="rgb(6.266785%, 5.734253%, 5.047607%)" stroke-opacity="1" stroke-miterlimit="10" d="M 15553.984375 6748.90625 L 21906.601562 6748.90625 " transform="matrix(0.1, 0, 0, -0.1, 0, 2500)"/>
</svg>
